<?xml version="1.0" encoding="utf-8"?>
<!-- Generator: Adobe Illustrator 24.2.1, SVG Export Plug-In . SVG Version: 6.00 Build 0)  -->
<svg version="1.1" id="Layer_1" xmlns="http://www.w3.org/2000/svg" xmlns:xlink="http://www.w3.org/1999/xlink" x="0px" y="0px"
	 viewBox="0 0 276.72 118.33" style="enable-background:new 0 0 276.72 118.33;" xml:space="preserve">
<style type="text/css">
	.st0{fill:#FFFFFF;}
	.st1{clip-path:url(#SVGID_2_);fill:#FFFFFF;}
	.st2{clip-path:url(#SVGID_4_);fill:#FFFFFF;}
</style>
<path class="st0" d="M164.6,54.49c-2.5-2.12-4.76-3.08-8.13-3.32c-1.06-0.1-2.07-0.05-3.08,0.1c-3.42,0.48-6.01,1.88-8.13,4.28
	c-2.55,2.98-3.61,6.26-3.27,9.77c0.05,0.43,0.1,0.87,0.19,1.35c0.77,3.51,2.07,5.68,4.62,7.75c3.32,2.65,7.36,3.56,11.6,2.65
	c3.85-0.87,6.69-2.84,8.81-6.3c1.25-2.07,1.83-4.23,1.83-6.64c0-2.98-0.82-5.34-2.74-7.84C165.81,55.6,165.23,55.02,164.6,54.49
	 M159.02,65.32c-0.48,2.21-2.93,3.42-5.2,2.4c-1.49-0.63-2.36-2.12-2.21-3.75c0.14-1.73,1.3-2.98,2.98-3.37
	c0.63-0.14,1.25-0.1,1.88,0.05C158.54,61.28,159.55,63.1,159.02,65.32z M139.9,51.64c-2.36,0.58-3.75,1.35-4.91,2.74v-2.45h-14.92
	v-3.37l-10.06-0.05v3.42h-1.06l-2.4,9.48h3.46v6.11h-4.47v-8.56c0-1.68-0.24-2.7-0.87-3.8c-0.39-0.72-0.92-1.35-1.59-1.88
	c-1.2-0.92-2.5-1.35-4.62-1.35h-5.53l-2.02,4.38v-4.38H76.19l-1.09,4.28c-0.46-0.6-0.99-1.13-1.56-1.62
	c-2.5-2.11-4.76-3.08-8.13-3.32c-1.06-0.1-2.07-0.05-3.08,0.1c-3.42,0.48-6.01,1.88-8.13,4.28c-1.12,1.31-1.95,2.67-2.5,4.08
	c-0.72,1.83-0.98,3.74-0.79,5.74c0.01,0.11,0.03,0.23,0.04,0.34l0.05,0.17c0.03,0.25,0.07,0.51,0.13,0.78
	c0.24,1.08,0.52,2.03,0.88,2.89l0.07,0.27c0.8,1.84,1.95,3.26,3.65,4.64c3.32,2.65,7.36,3.56,11.6,2.65
	c3.85-0.87,6.69-2.84,8.81-6.3c0.32-0.53,0.6-1.07,0.83-1.62c0.69-1.6,1.02-3.27,1.02-5.08c0-1.01-0.1-1.95-0.3-2.85h3.54v15.88
	h9.72V61.7c0.14-0.05,0.34-0.15,0.48-0.15c2.79-0.77,4.43,0.29,4.43,1.69v8.3l0.01,0c0,0,0,0.01,0,0.01c0,3.12,2.53,5.65,5.65,5.65
	c0.01,0,0.02,0,0.03,0l0.03,0.03h18.53V61.41h2.76l-0.01,0.05h2.41v15.78H135V66.31c0-0.24,0.05-0.48,0.1-0.67
	c0.38-1.63,1.06-2.6,1.83-3.03c0.72-0.39,1.44-0.53,2.02-0.43l0.96,0.15l2.93-10.88C141.83,51.35,140.87,51.45,139.9,51.64z
	 M67.93,65.47c-0.03,0.14-0.07,0.27-0.11,0.4c-0.69,1.92-2.96,2.89-5.06,1.96c-1.49-0.63-2.36-2.12-2.21-3.75
	c0.04-0.42,0.13-0.82,0.28-1.17c0.47-1.09,1.43-1.86,2.68-2.14c0.62-0.15,1.25-0.1,1.88,0.05C67.45,61.42,68.46,63.25,67.93,65.47z
	 M209.06,41.2h-9.77L199,42.59h-13.81l-2.4,10.25h6.35l0.05,24.4h10.73V52.99h6.35L209.06,41.2z M181.34,41.2h-9.34l-3.13,9.72h2.41
	v20.3c-0.01,0.12-0.02,0.24-0.02,0.36c0,3.11,2.52,5.64,5.63,5.65l0.01,0.01h4.44l2.46-9.72h-2.46V41.2z M246.21,68.34
	c-3.42,0.58-5.39-0.87-5.58-3.32c-0.05-0.91,0.34-1.92,1.2-2.89c0.67-0.67,1.68-1.11,3.03-1.06c0.72,0.05,1.4,0.24,2.02,0.63
	l2.4-9.29c-2.07-0.91-4.33-1.2-6.78-0.86c-2.89,0.38-5.05,1.44-7.6,3.75c-0.67,0.62-1.3,1.3-1.78,2.02
	c-2.07,2.98-2.65,5.29-2.12,9.34c0.34,2.84,1.68,5.39,4.19,7.7c2.79,2.6,7.17,3.85,11.89,3.13c0.53-0.05,1.06-0.19,1.59-0.29
	l-1.88-8.95C246.6,68.29,246.41,68.34,246.21,68.34z M229.61,65.06c-0.58-6.98-3.9-11.31-8.95-12.99c-1.68-0.58-3.66-0.77-6.11-0.53
	c-4.52,0.48-7.41,2.36-9.48,6.16c-0.67,1.2-1.11,2.5-1.4,4.09c-1.78,9.86,6.06,17.37,20.4,15.45c0.63-0.05,1.3-0.19,1.93-0.29
	l2.31-8.85c-0.43,0.15-0.87,0.24-1.3,0.34c-3.71,0.82-6.02,1.01-7.51,0.87c-2.79-0.34-4.09-1.06-4.96-2.65h15.11
	C229.66,66.12,229.66,65.59,229.61,65.06z M213.16,61.65c-0.05-1.54,1.01-2.79,2.6-3.03c1.97-0.39,3.7,1.06,3.7,3.03H213.16z"/>
<g>
	<defs>
		<rect id="SVGID_1_" width="276.72" height="118.27"/>
	</defs>
	<use xlink:href="#SVGID_1_"  style="overflow:visible;fill:#FFFFFF;"/>
	<clipPath id="SVGID_2_">
		<use xlink:href="#SVGID_1_"  style="overflow:visible;"/>
	</clipPath>
	<path class="st1" d="M109.29,84.06l-10.22-3.9H88.23c-0.01,0.02-0.03,0.04-0.04,0.06l16.71,12.01L87.24,81.55
		c-0.79,1.05-1.65,2.05-2.57,2.99l14.44,14.94l-15.62-13.8c-0.95,0.88-1.96,1.69-3.02,2.44l11.66,17.46L79.09,89.06
		c-1.08,0.68-2.2,1.3-3.36,1.84l8.44,19.45l-9.98-18.78c-1.16,0.47-2.36,0.86-3.59,1.19l4.88,20.86l-6.53-20.48
		c-1.2,0.24-2.43,0.42-3.68,0.52l1.09,21.62l-2.8-21.53c-0.25,0.01-0.5,0.02-0.75,0.02c-0.99,0-1.96-0.05-2.92-0.14l-2.81,21.65
		l1.1-21.86c-1.21-0.18-2.39-0.45-3.54-0.77l-6.69,20.96l5.02-21.48c-1.14-0.39-2.25-0.83-3.32-1.34l-10.39,19.56l8.83-20.36
		c-1.04-0.57-2.04-1.21-3-1.89l-13.8,17.49l12.39-18.55c-0.92-0.74-1.79-1.52-2.62-2.35L24.3,99.48l15.56-16.1
		c-0.77-0.88-1.49-1.8-2.16-2.76l-19.18,11.6l18.2-13.08c-0.61-0.99-1.16-2.02-1.65-3.08l-20.95,7.99l20.25-9.62
		c-0.43-1.08-0.8-2.19-1.1-3.32l-22.01,4.12l21.6-5.84c-0.24-1.14-0.4-2.3-0.51-3.48l-22.34,0.12l22.23-1.88
		c-0.01-0.33-0.03-0.66-0.03-0.99c0-0.86,0.04-1.71,0.11-2.55l-21.91-3.85l22.1,2.11c0.17-1.19,0.4-2.36,0.7-3.5l-20.73-7.65
		l21.23,5.98c0.37-1.15,0.82-2.27,1.32-3.36L16.14,39.2l19.67,9.6c0.58-1.08,1.22-2.11,1.91-3.11L21.25,31.46l17.49,12.85
		c0.76-0.97,1.58-1.9,2.45-2.77L27.66,24.75l14.77,15.62c0.93-0.83,1.92-1.61,2.95-2.33L35.17,19.3l11.63,17.82
		c1.08-0.67,2.21-1.26,3.37-1.79l-6.64-20.06l8.17,19.41c1.2-0.47,2.43-0.86,3.69-1.18l-2.92-20.7L57,33.15
		c1.27-0.24,2.57-0.41,3.89-0.49l0.82-20.68l0.82,20.63c0.09,0,0.18-0.01,0.28-0.01c1.25,0,2.48,0.08,3.69,0.23l4.46-20.02
		l-2.85,20.25c1.33,0.23,2.64,0.56,3.9,0.96l7.89-18.75l-6.38,19.27c0.75,0.28,1.49,0.58,2.21,0.92l-1.45,2.5
		c-3.5-1.58-7.38-2.47-11.48-2.47c-15.4,0-27.88,12.48-27.88,27.88c0,15.4,12.48,27.88,27.88,27.88c9.13,0,17.24-4.4,22.32-11.19
		h-0.48c-4.79,5.75-12,9.42-20.07,9.42c-14.42,0-26.11-11.69-26.11-26.11s11.69-26.1,26.11-26.1c3.22,0,6.3,0.59,9.15,1.66
		l-3.89,6.73l-0.29,0.87h0.94L88.25,19.3L73.41,46.52h1.75l20.59-21.77L78.21,46.52h3.47l20.5-15.06L84.74,46.52h7.55l14.99-7.32
		l-12.4,7.32h25.53L94.88,2.29l-3.2,5.55C82.78,2.85,72.52,0,61.6,0C27.58,0,0,27.58,0,61.6c0,16.38,6.4,31.26,16.82,42.3
		C7.7,93.31,2.19,79.52,2.19,64.44c0-33.42,27.09-60.51,60.51-60.51c9.88,0,19.2,2.37,27.44,6.57l-2.09,3.62
		c-7.56-3.9-16.14-6.11-25.24-6.11c-30.46,0-55.16,24.69-55.16,55.16c0,30.46,24.69,55.16,55.16,55.16
		c24.53,0,45.32-16.02,52.48-38.17h-14.2L109.29,84.06 M98.72,110.95h1.81v5.19h0.9v-5.19h1.82v-0.76h-4.53V110.95z M108.3,110.19
		l-1.17,3.21c-0.15,0.43-0.28,0.96-0.42,1.51h-0.03c-0.15-0.55-0.27-1.05-0.42-1.5l-1.17-3.23h-1.18l-0.46,5.95h0.87l0.22-3.59
		c0.03-0.54,0.01-1.05,0.03-1.61h0.04c0.13,0.55,0.28,1.14,0.43,1.61l1.21,3.51h0.69l1.24-3.42c0.18-0.52,0.36-1.15,0.51-1.7h0.04
		c0.01,0.58-0.01,1.15,0.01,1.61l0.24,3.59h0.91l-0.45-5.95H108.3z"/>
</g>
<polyline class="st0" points="257.53,76.17 260.77,76.17 260.77,78.46 254.84,78.46 254.84,68.08 257.53,68.08 257.53,76.17 "/>
<polyline class="st0" points="264.85,76.17 268.08,76.17 268.08,78.46 262.16,78.46 262.16,68.08 264.85,68.08 264.85,76.17 "/>
<g>
	<defs>
		<rect id="SVGID_3_" width="276.72" height="118.27"/>
	</defs>
	<use xlink:href="#SVGID_3_"  style="overflow:visible;fill:#FFFFFF;"/>
	<clipPath id="SVGID_4_">
		<use xlink:href="#SVGID_3_"  style="overflow:visible;"/>
	</clipPath>
	<path class="st2" d="M276.72,71.61c-0.64-0.76-1.4-1.14-2.34-1.14c-1.62,0-2.79,1.2-2.79,2.86c0,1.6,1.18,2.79,2.79,2.79
		c0.89,0,1.63-0.34,2.34-1.09v3.19c-1.26,0.42-1.68,0.51-2.38,0.51c-3.13,0-5.56-2.36-5.56-5.42c0-3.03,2.44-5.46,5.49-5.46
		c0.81,0,1.46,0.14,2.44,0.53V71.61"/>
</g>
</svg>
